<mxfile host="app.diagrams.net" modified="2024-04-24T04:57:42.018Z" agent="Mozilla/5.0 (Windows NT 10.0; Win64; x64) AppleWebKit/537.36 (KHTML, like Gecko) Chrome/124.0.0.0 Safari/537.36" etag="XjWFjrCopUP_0YusUCaw" version="24.2.5" type="device">
  <diagram id="C5RBs43oDa-KdzZeNtuy" name="Page-1">
    <mxGraphModel dx="880" dy="468" grid="1" gridSize="10" guides="1" tooltips="1" connect="1" arrows="1" fold="1" page="1" pageScale="1" pageWidth="827" pageHeight="1169" math="0" shadow="0">
      <root>
        <mxCell id="WIyWlLk6GJQsqaUBKTNV-0" />
        <mxCell id="WIyWlLk6GJQsqaUBKTNV-1" parent="WIyWlLk6GJQsqaUBKTNV-0" />
        <mxCell id="x5-YKeO-YnO_l6iyI438-0" value="&lt;b&gt;&lt;font style=&quot;font-size: 16px;&quot;&gt;Flowchart Registrasi&amp;nbsp;&lt;/font&gt;&lt;/b&gt;" style="text;html=1;align=center;verticalAlign=middle;resizable=0;points=[];autosize=1;strokeColor=none;fillColor=none;" parent="WIyWlLk6GJQsqaUBKTNV-1" vertex="1">
          <mxGeometry x="110" y="18" width="190" height="30" as="geometry" />
        </mxCell>
        <mxCell id="x5-YKeO-YnO_l6iyI438-1" value="Mulai" style="ellipse;whiteSpace=wrap;html=1;" parent="WIyWlLk6GJQsqaUBKTNV-1" vertex="1">
          <mxGeometry x="160" y="70" width="120" height="50" as="geometry" />
        </mxCell>
        <mxCell id="x5-YKeO-YnO_l6iyI438-2" value="Masukkan&amp;nbsp;&lt;div&gt;Nama Lengkap&amp;nbsp;&lt;/div&gt;&lt;div&gt;Alamat&amp;nbsp;&lt;/div&gt;&lt;div&gt;Username Password&lt;/div&gt;" style="shape=parallelogram;perimeter=parallelogramPerimeter;whiteSpace=wrap;html=1;fixedSize=1;" parent="WIyWlLk6GJQsqaUBKTNV-1" vertex="1">
          <mxGeometry x="130" y="170" width="180" height="80" as="geometry" />
        </mxCell>
        <mxCell id="x5-YKeO-YnO_l6iyI438-3" value="Proses simpan registrasi" style="rounded=0;whiteSpace=wrap;html=1;" parent="WIyWlLk6GJQsqaUBKTNV-1" vertex="1">
          <mxGeometry x="145" y="290" width="150" height="50" as="geometry" />
        </mxCell>
        <mxCell id="x5-YKeO-YnO_l6iyI438-5" value="" style="endArrow=classic;html=1;rounded=0;exitX=0.5;exitY=1;exitDx=0;exitDy=0;entryX=0.5;entryY=0;entryDx=0;entryDy=0;" parent="WIyWlLk6GJQsqaUBKTNV-1" source="x5-YKeO-YnO_l6iyI438-1" target="x5-YKeO-YnO_l6iyI438-2" edge="1">
          <mxGeometry width="50" height="50" relative="1" as="geometry">
            <mxPoint x="390" y="290" as="sourcePoint" />
            <mxPoint x="440" y="240" as="targetPoint" />
          </mxGeometry>
        </mxCell>
        <mxCell id="x5-YKeO-YnO_l6iyI438-6" value="" style="endArrow=classic;html=1;rounded=0;entryX=0.5;entryY=0;entryDx=0;entryDy=0;" parent="WIyWlLk6GJQsqaUBKTNV-1" source="x5-YKeO-YnO_l6iyI438-2" target="x5-YKeO-YnO_l6iyI438-3" edge="1">
          <mxGeometry width="50" height="50" relative="1" as="geometry">
            <mxPoint x="390" y="290" as="sourcePoint" />
            <mxPoint x="440" y="240" as="targetPoint" />
          </mxGeometry>
        </mxCell>
        <mxCell id="x5-YKeO-YnO_l6iyI438-7" value="" style="endArrow=classic;html=1;rounded=0;exitX=0.5;exitY=1;exitDx=0;exitDy=0;" parent="WIyWlLk6GJQsqaUBKTNV-1" source="x5-YKeO-YnO_l6iyI438-3" target="x5-YKeO-YnO_l6iyI438-8" edge="1">
          <mxGeometry width="50" height="50" relative="1" as="geometry">
            <mxPoint x="390" y="290" as="sourcePoint" />
            <mxPoint x="440" y="240" as="targetPoint" />
          </mxGeometry>
        </mxCell>
        <mxCell id="x5-YKeO-YnO_l6iyI438-8" value="Data sudah/belum tersimpan" style="rhombus;whiteSpace=wrap;html=1;fontSize=9;" parent="WIyWlLk6GJQsqaUBKTNV-1" vertex="1">
          <mxGeometry x="170" y="370" width="100" height="90" as="geometry" />
        </mxCell>
        <mxCell id="x5-YKeO-YnO_l6iyI438-9" value="Data Berhasil Disimpan" style="rounded=0;whiteSpace=wrap;html=1;" parent="WIyWlLk6GJQsqaUBKTNV-1" vertex="1">
          <mxGeometry x="170" y="490" width="120" height="60" as="geometry" />
        </mxCell>
        <mxCell id="x5-YKeO-YnO_l6iyI438-10" value="" style="endArrow=classic;html=1;rounded=0;exitX=0.5;exitY=1;exitDx=0;exitDy=0;" parent="WIyWlLk6GJQsqaUBKTNV-1" source="x5-YKeO-YnO_l6iyI438-8" edge="1">
          <mxGeometry width="50" height="50" relative="1" as="geometry">
            <mxPoint x="390" y="370" as="sourcePoint" />
            <mxPoint x="220" y="490" as="targetPoint" />
          </mxGeometry>
        </mxCell>
        <mxCell id="x5-YKeO-YnO_l6iyI438-11" value="" style="endArrow=classic;html=1;rounded=0;exitX=0.417;exitY=1;exitDx=0;exitDy=0;exitPerimeter=0;" parent="WIyWlLk6GJQsqaUBKTNV-1" source="x5-YKeO-YnO_l6iyI438-9" edge="1">
          <mxGeometry width="50" height="50" relative="1" as="geometry">
            <mxPoint x="390" y="540" as="sourcePoint" />
            <mxPoint x="220" y="580" as="targetPoint" />
          </mxGeometry>
        </mxCell>
        <mxCell id="x5-YKeO-YnO_l6iyI438-12" value="Selesai" style="ellipse;whiteSpace=wrap;html=1;" parent="WIyWlLk6GJQsqaUBKTNV-1" vertex="1">
          <mxGeometry x="160" y="580" width="120" height="50" as="geometry" />
        </mxCell>
        <mxCell id="x5-YKeO-YnO_l6iyI438-13" value="" style="endArrow=classic;html=1;rounded=0;exitX=1;exitY=0.5;exitDx=0;exitDy=0;entryX=1;entryY=0.5;entryDx=0;entryDy=0;" parent="WIyWlLk6GJQsqaUBKTNV-1" source="x5-YKeO-YnO_l6iyI438-8" target="x5-YKeO-YnO_l6iyI438-2" edge="1">
          <mxGeometry width="50" height="50" relative="1" as="geometry">
            <mxPoint x="390" y="440" as="sourcePoint" />
            <mxPoint x="440" y="390" as="targetPoint" />
            <Array as="points">
              <mxPoint x="420" y="415" />
              <mxPoint x="420" y="210" />
            </Array>
          </mxGeometry>
        </mxCell>
        <mxCell id="x5-YKeO-YnO_l6iyI438-14" value="Belum terisi" style="text;html=1;align=center;verticalAlign=middle;resizable=0;points=[];autosize=1;strokeColor=none;fillColor=none;" parent="WIyWlLk6GJQsqaUBKTNV-1" vertex="1">
          <mxGeometry x="410" y="278" width="90" height="30" as="geometry" />
        </mxCell>
        <mxCell id="x5-YKeO-YnO_l6iyI438-34" value="" style="rounded=0;html=1;jettySize=auto;orthogonalLoop=1;fontSize=11;endArrow=block;endFill=0;endSize=8;strokeWidth=1;shadow=0;labelBackgroundColor=none;edgeStyle=orthogonalEdgeStyle;" parent="WIyWlLk6GJQsqaUBKTNV-1" target="x5-YKeO-YnO_l6iyI438-36" edge="1">
          <mxGeometry relative="1" as="geometry">
            <mxPoint x="310" y="1150" as="sourcePoint" />
          </mxGeometry>
        </mxCell>
        <mxCell id="x5-YKeO-YnO_l6iyI438-35" value="Submit" style="edgeLabel;html=1;align=center;verticalAlign=middle;resizable=0;points=[];" parent="x5-YKeO-YnO_l6iyI438-34" vertex="1" connectable="0">
          <mxGeometry relative="1" as="geometry">
            <mxPoint x="20" as="offset" />
          </mxGeometry>
        </mxCell>
        <mxCell id="x5-YKeO-YnO_l6iyI438-36" value="Validasi Username Dan Password" style="rhombus;whiteSpace=wrap;html=1;shadow=0;fontFamily=Helvetica;fontSize=11;align=center;strokeWidth=1;spacing=6;spacingTop=-4;" parent="WIyWlLk6GJQsqaUBKTNV-1" vertex="1">
          <mxGeometry x="260" y="1200" width="100" height="80" as="geometry" />
        </mxCell>
        <mxCell id="x5-YKeO-YnO_l6iyI438-37" value="" style="endArrow=classic;html=1;rounded=0;exitX=0.5;exitY=1;exitDx=0;exitDy=0;entryX=0.417;entryY=-0.02;entryDx=0;entryDy=0;entryPerimeter=0;" parent="WIyWlLk6GJQsqaUBKTNV-1" source="x5-YKeO-YnO_l6iyI438-36" target="x5-YKeO-YnO_l6iyI438-42" edge="1">
          <mxGeometry width="50" height="50" relative="1" as="geometry">
            <mxPoint x="480" y="1300" as="sourcePoint" />
            <mxPoint x="310" y="1340" as="targetPoint" />
          </mxGeometry>
        </mxCell>
        <mxCell id="x5-YKeO-YnO_l6iyI438-38" value="Benar" style="edgeLabel;html=1;align=center;verticalAlign=middle;resizable=0;points=[];" parent="x5-YKeO-YnO_l6iyI438-37" vertex="1" connectable="0">
          <mxGeometry x="0.0333" y="2" relative="1" as="geometry">
            <mxPoint as="offset" />
          </mxGeometry>
        </mxCell>
        <mxCell id="x5-YKeO-YnO_l6iyI438-39" value="" style="endArrow=classic;html=1;rounded=0;exitX=0.5;exitY=0;exitDx=0;exitDy=0;" parent="WIyWlLk6GJQsqaUBKTNV-1" edge="1">
          <mxGeometry width="50" height="50" relative="1" as="geometry">
            <mxPoint x="510" y="1220" as="sourcePoint" />
            <mxPoint x="370" y="1130" as="targetPoint" />
            <Array as="points">
              <mxPoint x="510" y="1130" />
            </Array>
          </mxGeometry>
        </mxCell>
        <mxCell id="x5-YKeO-YnO_l6iyI438-40" value="" style="edgeStyle=orthogonalEdgeStyle;rounded=0;orthogonalLoop=1;jettySize=auto;html=1;" parent="WIyWlLk6GJQsqaUBKTNV-1" target="x5-YKeO-YnO_l6iyI438-36" edge="1">
          <mxGeometry relative="1" as="geometry">
            <mxPoint x="310" y="1150" as="sourcePoint" />
          </mxGeometry>
        </mxCell>
        <mxCell id="x5-YKeO-YnO_l6iyI438-41" value="Login gagal" style="rounded=0;whiteSpace=wrap;html=1;" parent="WIyWlLk6GJQsqaUBKTNV-1" vertex="1">
          <mxGeometry x="449" y="1215" width="110" height="50" as="geometry" />
        </mxCell>
        <mxCell id="x5-YKeO-YnO_l6iyI438-42" value="Login Sukses" style="rounded=0;whiteSpace=wrap;html=1;fontSize=11;" parent="WIyWlLk6GJQsqaUBKTNV-1" vertex="1">
          <mxGeometry x="250" y="1340" width="140" height="50" as="geometry" />
        </mxCell>
        <mxCell id="x5-YKeO-YnO_l6iyI438-43" value="" style="endArrow=classic;html=1;rounded=0;exitX=1;exitY=0.5;exitDx=0;exitDy=0;entryX=0;entryY=0.5;entryDx=0;entryDy=0;" parent="WIyWlLk6GJQsqaUBKTNV-1" source="x5-YKeO-YnO_l6iyI438-36" target="x5-YKeO-YnO_l6iyI438-41" edge="1">
          <mxGeometry width="50" height="50" relative="1" as="geometry">
            <mxPoint x="480" y="1300" as="sourcePoint" />
            <mxPoint x="530" y="1250" as="targetPoint" />
          </mxGeometry>
        </mxCell>
        <mxCell id="x5-YKeO-YnO_l6iyI438-44" value="username dan&amp;nbsp;&lt;div style=&quot;font-size: 9px;&quot;&gt;password tidak sesuai&lt;/div&gt;" style="text;html=1;align=center;verticalAlign=middle;resizable=0;points=[];autosize=1;strokeColor=none;fillColor=none;fontSize=9;" parent="WIyWlLk6GJQsqaUBKTNV-1" vertex="1">
          <mxGeometry x="339" y="1240" width="110" height="40" as="geometry" />
        </mxCell>
        <mxCell id="x5-YKeO-YnO_l6iyI438-45" value="Mulai" style="ellipse;whiteSpace=wrap;html=1;direction=south;" parent="WIyWlLk6GJQsqaUBKTNV-1" vertex="1">
          <mxGeometry x="270" y="1040" width="80" height="40" as="geometry" />
        </mxCell>
        <mxCell id="x5-YKeO-YnO_l6iyI438-46" value="" style="endArrow=classic;html=1;rounded=0;exitX=1;exitY=0.5;exitDx=0;exitDy=0;entryX=0.5;entryY=0;entryDx=0;entryDy=0;" parent="WIyWlLk6GJQsqaUBKTNV-1" source="x5-YKeO-YnO_l6iyI438-45" edge="1">
          <mxGeometry width="50" height="50" relative="1" as="geometry">
            <mxPoint x="400" y="1030" as="sourcePoint" />
            <mxPoint x="310" y="1110" as="targetPoint" />
          </mxGeometry>
        </mxCell>
        <mxCell id="x5-YKeO-YnO_l6iyI438-47" value="Tampilan Web" style="shape=parallelogram;perimeter=parallelogramPerimeter;whiteSpace=wrap;html=1;fixedSize=1;fontSize=11;" parent="WIyWlLk6GJQsqaUBKTNV-1" vertex="1">
          <mxGeometry x="250" y="1420" width="120" height="40" as="geometry" />
        </mxCell>
        <mxCell id="x5-YKeO-YnO_l6iyI438-48" value="" style="endArrow=classic;html=1;rounded=0;exitX=0.421;exitY=1;exitDx=0;exitDy=0;exitPerimeter=0;entryX=0.5;entryY=0;entryDx=0;entryDy=0;" parent="WIyWlLk6GJQsqaUBKTNV-1" source="x5-YKeO-YnO_l6iyI438-42" target="x5-YKeO-YnO_l6iyI438-47" edge="1">
          <mxGeometry width="50" height="50" relative="1" as="geometry">
            <mxPoint x="400" y="1280" as="sourcePoint" />
            <mxPoint x="450" y="1230" as="targetPoint" />
          </mxGeometry>
        </mxCell>
        <mxCell id="x5-YKeO-YnO_l6iyI438-49" value="&lt;span style=&quot;font-size: 10px;&quot;&gt;Masukkan Usernamse dan Password&lt;/span&gt;" style="shape=parallelogram;perimeter=parallelogramPerimeter;whiteSpace=wrap;html=1;fixedSize=1;" parent="WIyWlLk6GJQsqaUBKTNV-1" vertex="1">
          <mxGeometry x="220" y="1110" width="160" height="40" as="geometry" />
        </mxCell>
        <mxCell id="x5-YKeO-YnO_l6iyI438-50" value="" style="endArrow=classic;html=1;rounded=0;exitX=0.5;exitY=1;exitDx=0;exitDy=0;" parent="WIyWlLk6GJQsqaUBKTNV-1" source="x5-YKeO-YnO_l6iyI438-47" target="x5-YKeO-YnO_l6iyI438-51" edge="1">
          <mxGeometry width="50" height="50" relative="1" as="geometry">
            <mxPoint x="400" y="1410" as="sourcePoint" />
            <mxPoint x="310" y="1500" as="targetPoint" />
          </mxGeometry>
        </mxCell>
        <mxCell id="x5-YKeO-YnO_l6iyI438-51" value="Selesai" style="ellipse;whiteSpace=wrap;html=1;fontSize=11;" parent="WIyWlLk6GJQsqaUBKTNV-1" vertex="1">
          <mxGeometry x="260" y="1490" width="100" height="50" as="geometry" />
        </mxCell>
        <mxCell id="x5-YKeO-YnO_l6iyI438-52" value="&lt;b&gt;&lt;font style=&quot;font-size: 19px;&quot;&gt;Flowchart Login&lt;/font&gt;&lt;/b&gt;" style="text;html=1;align=center;verticalAlign=middle;resizable=0;points=[];autosize=1;strokeColor=none;fillColor=none;" parent="WIyWlLk6GJQsqaUBKTNV-1" vertex="1">
          <mxGeometry x="220" y="970" width="170" height="40" as="geometry" />
        </mxCell>
        <mxCell id="x5-YKeO-YnO_l6iyI438-53" value="&lt;font style=&quot;font-size: 17px;&quot;&gt;&lt;b&gt;Flowchart Logout&lt;/b&gt;&lt;/font&gt;" style="text;html=1;align=center;verticalAlign=middle;resizable=0;points=[];autosize=1;strokeColor=none;fillColor=none;" parent="WIyWlLk6GJQsqaUBKTNV-1" vertex="1">
          <mxGeometry x="260" y="1778" width="170" height="30" as="geometry" />
        </mxCell>
        <mxCell id="x5-YKeO-YnO_l6iyI438-54" value="Mulai" style="ellipse;whiteSpace=wrap;html=1;" parent="WIyWlLk6GJQsqaUBKTNV-1" vertex="1">
          <mxGeometry x="287.5" y="1840" width="115" height="50" as="geometry" />
        </mxCell>
        <mxCell id="x5-YKeO-YnO_l6iyI438-55" value="Tampilan Web" style="rounded=0;whiteSpace=wrap;html=1;" parent="WIyWlLk6GJQsqaUBKTNV-1" vertex="1">
          <mxGeometry x="285" y="1920" width="120" height="50" as="geometry" />
        </mxCell>
        <mxCell id="x5-YKeO-YnO_l6iyI438-56" value="" style="endArrow=classic;html=1;rounded=0;entryX=0.5;entryY=0;entryDx=0;entryDy=0;exitX=0.5;exitY=1;exitDx=0;exitDy=0;" parent="WIyWlLk6GJQsqaUBKTNV-1" source="x5-YKeO-YnO_l6iyI438-54" target="x5-YKeO-YnO_l6iyI438-55" edge="1">
          <mxGeometry width="50" height="50" relative="1" as="geometry">
            <mxPoint x="280" y="1940" as="sourcePoint" />
            <mxPoint x="330" y="1890" as="targetPoint" />
          </mxGeometry>
        </mxCell>
        <mxCell id="x5-YKeO-YnO_l6iyI438-58" value="" style="endArrow=classic;html=1;rounded=0;exitX=0.5;exitY=1;exitDx=0;exitDy=0;entryX=0.5;entryY=0;entryDx=0;entryDy=0;" parent="WIyWlLk6GJQsqaUBKTNV-1" source="x5-YKeO-YnO_l6iyI438-55" edge="1">
          <mxGeometry width="50" height="50" relative="1" as="geometry">
            <mxPoint x="280" y="1940" as="sourcePoint" />
            <mxPoint x="345" y="2020" as="targetPoint" />
          </mxGeometry>
        </mxCell>
        <mxCell id="x5-YKeO-YnO_l6iyI438-63" value="Logout" style="text;html=1;align=center;verticalAlign=middle;resizable=0;points=[];autosize=1;strokeColor=none;fillColor=none;" parent="WIyWlLk6GJQsqaUBKTNV-1" vertex="1">
          <mxGeometry x="320" y="2020" width="60" height="30" as="geometry" />
        </mxCell>
        <mxCell id="x5-YKeO-YnO_l6iyI438-64" value="Tampilan Login" style="rounded=0;whiteSpace=wrap;html=1;" parent="WIyWlLk6GJQsqaUBKTNV-1" vertex="1">
          <mxGeometry x="285" y="2080" width="120" height="50" as="geometry" />
        </mxCell>
        <mxCell id="x5-YKeO-YnO_l6iyI438-67" style="edgeStyle=orthogonalEdgeStyle;rounded=0;orthogonalLoop=1;jettySize=auto;html=1;" parent="WIyWlLk6GJQsqaUBKTNV-1" target="x5-YKeO-YnO_l6iyI438-64" edge="1">
          <mxGeometry relative="1" as="geometry">
            <mxPoint x="345" y="2040" as="sourcePoint" />
          </mxGeometry>
        </mxCell>
      </root>
    </mxGraphModel>
  </diagram>
</mxfile>
